<svg xmlns="http://www.w3.org/2000/svg" viewBox="0 0 800 800" fill="none" stroke="#84c2c6" stroke-width="1.1" stroke-linejoin="round" stroke-linecap="round">
<path d="M267.5,230.0 C265.9,234.7 256.9,238.1 254.3,242.5 C251.6,246.9 253.7,252.6 251.4,256.3 C249.0,260.0 243.8,261.0 240.0,264.7 C236.2,268.4 233.3,276.4 228.6,278.5 C223.8,280.6 217.4,278.0 211.6,277.4 C205.9,276.9 197.4,279.0 194.0,275.1 C190.6,271.2 193.7,259.2 191.2,254.1 C188.7,249.1 180.3,248.9 179.0,244.9 C177.7,240.9 182.9,234.8 183.5,230.0 C184.0,225.2 182.1,221.2 182.5,216.3 C182.8,211.5 182.2,204.0 185.5,201.0 C188.7,198.0 197.1,200.1 201.8,198.4 C206.4,196.7 208.7,193.6 213.1,191.0 C217.5,188.5 223.3,183.1 228.3,183.0 C233.2,182.9 239.2,186.8 242.9,190.3 C246.6,193.9 247.1,200.4 250.6,204.3 C254.1,208.3 261.0,209.8 263.8,214.1 C266.6,218.3 269.1,225.3 267.5,230.0 Z"></path>
<path d="M275.4,230.0 C276.5,237.0 282.8,246.1 280.8,252.1 C278.8,258.2 267.3,259.4 263.3,266.4 C259.3,273.3 262.2,288.9 256.9,293.9 C251.6,298.9 239.4,297.9 231.7,296.3 C224.0,294.7 217.0,287.2 210.5,284.1 C203.9,281.0 200.4,278.6 192.6,277.5 C184.8,276.3 168.3,281.7 163.8,277.1 C159.4,272.5 168.6,257.6 165.7,249.7 C162.9,241.9 148.7,237.3 146.7,230.0 C144.7,222.7 150.1,213.1 153.8,205.9 C157.4,198.7 163.9,193.9 168.6,186.9 C173.2,179.8 175.2,168.0 181.7,163.7 C188.3,159.5 199.5,161.6 207.9,161.3 C216.3,161.0 224.6,159.9 232.0,162.1 C239.4,164.2 246.5,169.4 252.2,174.3 C257.9,179.2 262.6,185.2 266.2,191.3 C269.8,197.3 272.3,203.9 273.8,210.4 C275.4,216.9 274.2,223.0 275.4,230.0 Z"></path>
<path d="M325.6,230.0 C326.6,240.0 312.0,251.7 305.6,261.2 C299.3,270.6 294.2,278.8 287.5,286.6 C280.7,294.4 273.3,301.1 264.9,307.8 C256.5,314.5 247.7,322.5 237.1,327.0 C226.5,331.5 211.6,338.5 201.5,334.8 C191.5,331.0 184.0,313.6 176.9,304.6 C169.9,295.7 165.2,288.7 159.2,281.1 C153.1,273.4 142.7,267.4 140.6,258.9 C138.4,250.4 147.9,240.2 146.4,230.0 C144.9,219.8 132.9,209.2 131.6,197.8 C130.2,186.4 130.2,167.5 138.4,161.5 C146.6,155.5 170.0,166.7 180.7,162.0 C191.5,157.2 194.1,134.8 202.9,133.3 C211.8,131.7 222.1,151.4 233.7,152.5 C245.2,153.6 262.8,136.5 272.1,139.7 C281.5,142.8 285.1,161.3 289.7,171.5 C294.3,181.7 293.8,191.2 299.8,201.0 C305.7,210.7 324.6,220.0 325.6,230.0 Z"></path>
<path d="M328.6,230.0 C325.9,242.6 317.3,251.0 315.7,264.8 C314.1,278.7 325.7,302.9 319.0,313.0 C312.2,323.1 289.0,324.2 275.2,325.5 C261.3,326.9 248.8,317.1 236.1,321.3 C223.4,325.4 209.2,352.2 198.8,350.2 C188.4,348.3 182.9,319.4 173.9,309.8 C165.0,300.2 151.8,300.9 145.1,292.9 C138.3,284.8 140.4,272.0 133.5,261.5 C126.5,251.0 108.7,242.4 103.3,230.0 C98.0,217.6 96.8,199.3 101.4,186.8 C106.0,174.4 119.6,162.5 131.2,155.5 C142.7,148.4 159.5,152.9 170.7,144.5 C181.8,136.2 186.2,112.3 198.1,105.6 C210.0,98.9 229.9,98.6 242.1,104.4 C254.4,110.3 262.5,130.4 271.7,140.5 C280.9,150.6 287.4,157.0 297.3,165.1 C307.3,173.3 326.4,178.6 331.6,189.4 C336.8,200.2 331.2,217.4 328.6,230.0 Z"></path>
<path d="M374.8,230.0 C376.4,243.3 343.8,257.7 334.7,271.7 C325.6,285.8 329.9,304.7 320.2,314.1 C310.6,323.6 288.9,316.3 276.8,328.4 C264.7,340.6 260.5,384.5 247.7,386.9 C234.9,389.3 216.6,348.5 200.1,342.9 C183.6,337.3 163.2,357.2 148.9,353.2 C134.5,349.2 124.9,331.1 114.1,318.8 C103.4,306.5 88.0,294.2 84.3,279.4 C80.6,264.6 89.0,245.5 91.8,230.0 C94.5,214.5 95.9,200.4 101.0,186.7 C106.1,173.0 111.6,156.6 122.2,147.9 C132.8,139.2 152.1,141.1 164.9,134.5 C177.6,127.9 185.9,112.4 198.6,108.5 C211.3,104.5 225.1,111.9 241.0,110.8 C256.9,109.7 280.9,95.9 294.0,101.9 C307.1,107.8 314.5,131.4 319.7,146.4 C324.8,161.4 315.6,177.9 324.8,191.9 C334.0,205.8 373.2,216.7 374.8,230.0 Z"></path>
<path d="M393.5,230.0 C388.6,248.2 366.7,264.4 355.5,279.3 C344.3,294.2 334.4,302.3 326.4,319.3 C318.4,336.3 321.4,374.9 307.5,381.6 C293.6,388.2 261.8,359.2 242.8,359.1 C223.7,359.1 210.4,379.8 193.3,381.2 C176.3,382.6 156.9,375.2 140.7,367.3 C124.5,359.5 103.6,349.4 96.0,334.1 C88.4,318.8 101.5,292.8 95.0,275.5 C88.5,258.2 60.3,246.4 56.9,230.0 C53.5,213.6 69.7,195.9 74.3,177.0 C78.9,158.0 70.8,125.7 84.6,116.4 C98.4,107.1 139.9,132.2 157.1,121.1 C174.4,109.9 173.8,53.4 188.2,49.4 C202.5,45.5 223.5,92.4 243.4,97.3 C263.2,102.3 291.3,73.5 307.2,78.9 C323.2,84.4 326.1,114.9 339.1,130.1 C352.1,145.2 376.1,153.2 385.2,169.9 C394.3,186.5 398.5,211.8 393.5,230.0 Z"></path>
<path d="M413.4,230.0 C416.8,252.3 427.7,285.1 413.9,300.6 C400.1,316.0 351.0,314.0 330.5,322.7 C310.0,331.4 303.2,333.6 291.0,352.9 C278.7,372.2 273.4,432.3 256.8,438.7 C240.2,445.2 210.6,404.0 191.5,391.7 C172.4,379.3 160.1,372.7 142.2,364.7 C124.4,356.7 99.8,355.9 84.5,343.7 C69.1,331.6 60.0,310.7 50.3,291.8 C40.5,272.8 26.7,250.8 26.1,230.0 C25.4,209.2 37.1,186.1 46.4,166.8 C55.8,147.5 69.3,131.8 82.0,114.2 C94.6,96.5 104.1,68.0 122.4,61.0 C140.8,54.0 170.9,72.8 192.2,72.3 C213.5,71.8 228.6,61.2 250.3,58.0 C272.0,54.7 302.8,44.7 322.3,52.7 C341.9,60.7 356.0,86.9 367.8,106.0 C379.6,125.0 385.6,146.3 393.2,167.0 C400.8,187.6 409.9,207.7 413.4,230.0 Z"></path>
<path d="M385.8,230.0 C386.9,249.3 382.9,266.3 382.5,289.1 C382.1,312.0 396.4,352.3 383.7,367.3 C370.9,382.3 326.5,363.3 306.0,379.0 C285.5,394.6 281.7,448.9 260.8,461.2 C239.9,473.5 205.7,460.0 180.7,453.0 C155.7,445.9 129.4,435.2 110.9,419.0 C92.4,402.9 86.7,374.8 69.7,356.1 C52.6,337.5 13.3,328.0 8.5,307.0 C3.8,285.9 38.6,254.6 41.4,230.0 C44.2,205.4 19.6,179.3 25.3,159.1 C30.9,138.9 59.5,125.5 75.4,108.7 C91.4,91.9 103.6,76.8 120.9,58.3 C138.1,39.8 157.4,-2.0 179.0,-2.3 C200.7,-2.7 225.5,49.2 250.6,56.2 C275.7,63.3 306.6,34.7 329.6,40.1 C352.6,45.5 380.9,66.3 388.7,88.5 C396.4,110.6 376.6,149.6 376.1,173.2 C375.7,196.8 384.8,210.7 385.8,230.0 Z"></path>
<path d="M428.3,230.0 C434.5,256.3 463.3,293.3 455.2,315.6 C447.0,337.9 403.3,351.7 379.3,363.7 C355.3,375.7 331.2,374.0 311.0,387.6 C290.8,401.2 280.1,432.0 258.0,445.3 C235.8,458.6 204.2,469.2 178.1,467.5 C152.1,465.8 117.9,455.1 101.6,435.1 C85.3,415.0 95.0,368.9 80.2,347.3 C65.3,325.7 21.6,325.0 12.6,305.5 C3.5,285.9 19.5,252.8 25.9,230.0 C32.3,207.2 52.3,196.7 51.0,168.5 C49.7,140.3 10.0,85.0 18.2,60.7 C26.5,36.4 72.9,29.0 100.4,22.9 C128.0,16.9 156.7,30.2 183.8,24.5 C210.8,18.7 236.0,-10.3 262.6,-11.7 C289.2,-13.0 327.8,-4.9 343.4,16.3 C358.9,37.6 343.5,92.3 355.9,115.9 C368.4,139.5 405.9,138.9 418.0,157.9 C430.0,177.0 422.1,203.7 428.3,230.0 Z"></path>
<path d="M596.2,180.0 C595.6,183.7 589.1,185.8 588.5,190.4 C587.8,194.9 593.6,202.8 592.3,207.1 C591.0,211.4 585.1,214.8 580.8,216.0 C576.4,217.1 570.5,213.8 566.0,214.0 C561.4,214.1 557.0,218.2 553.5,216.9 C549.9,215.7 547.5,209.4 544.7,206.5 C541.9,203.6 538.9,202.4 536.5,199.7 C534.1,197.1 532.6,194.1 530.2,190.9 C527.8,187.6 521.9,183.6 522.0,180.0 C522.2,176.4 530.3,174.1 531.3,169.5 C532.2,165.0 525.2,155.2 527.6,152.8 C530.1,150.5 541.3,155.9 545.8,155.4 C550.3,155.0 551.5,150.8 554.7,150.2 C557.9,149.6 560.8,152.4 565.0,151.8 C569.1,151.1 576.2,144.9 579.6,146.1 C583.0,147.3 583.1,155.1 585.2,158.8 C587.4,162.5 590.6,164.6 592.5,168.2 C594.3,171.7 596.9,176.3 596.2,180.0 Z"></path>
<path d="M606.1,180.0 C607.7,186.6 618.3,194.5 618.9,201.4 C619.4,208.3 614.6,217.3 609.2,221.3 C603.7,225.2 592.9,224.0 586.1,225.2 C579.3,226.5 574.3,228.6 568.6,228.8 C562.9,229.1 556.9,228.6 551.7,226.9 C546.6,225.3 542.3,221.5 537.6,218.8 C532.8,216.2 526.9,214.7 523.2,210.9 C519.4,207.2 519.5,201.5 515.1,196.3 C510.6,191.2 496.4,185.4 496.4,180.0 C496.5,174.6 510.8,168.8 515.4,163.7 C519.9,158.7 521.6,156.2 523.6,149.5 C525.6,142.7 523.1,129.0 527.3,123.4 C531.5,117.8 541.9,113.9 548.7,115.9 C555.5,117.9 561.8,132.0 567.9,135.3 C574.0,138.7 578.1,135.8 585.4,136.1 C592.6,136.4 607.2,132.7 611.2,137.0 C615.2,141.4 610.0,154.9 609.2,162.1 C608.3,169.3 604.4,173.4 606.1,180.0 Z"></path>
<path d="M648.1,180.0 C645.3,188.4 627.8,195.6 621.1,202.2 C614.3,208.9 612.7,214.7 607.7,220.0 C602.7,225.3 596.6,226.9 591.1,233.9 C585.6,240.9 582.2,256.9 574.5,262.1 C566.8,267.4 554.9,266.0 544.9,265.5 C534.9,265.0 522.2,264.6 514.4,259.0 C506.6,253.4 502.9,240.6 498.0,232.0 C493.2,223.4 488.4,215.9 485.2,207.2 C482.0,198.6 478.0,188.8 478.8,180.0 C479.6,171.2 486.3,162.7 490.1,154.5 C493.8,146.3 495.0,135.7 501.4,130.8 C507.7,125.9 520.3,126.9 528.4,125.2 C536.4,123.6 541.8,126.2 549.6,121.0 C557.4,115.9 566.3,96.6 575.1,94.2 C583.9,91.7 593.5,101.8 602.5,106.4 C611.5,111.1 623.3,114.4 629.2,121.9 C635.1,129.5 634.8,142.0 637.9,151.6 C641.1,161.3 650.9,171.6 648.1,180.0 Z"></path>
<path d="M655.4,180.0 C657.2,190.7 657.9,204.6 653.1,213.9 C648.3,223.2 632.5,225.1 626.4,235.8 C620.3,246.4 624.5,270.0 616.5,277.8 C608.4,285.7 590.6,281.9 578.2,283.0 C565.7,284.1 552.4,288.0 541.6,284.3 C530.8,280.6 524.2,266.5 513.4,260.8 C502.5,255.1 485.1,257.6 476.5,250.1 C467.8,242.6 464.1,227.5 461.5,215.8 C459.0,204.2 457.0,190.4 461.1,180.0 C465.2,169.6 481.6,163.1 486.2,153.1 C490.8,143.2 486.1,132.3 488.8,120.3 C491.6,108.2 493.6,86.7 502.7,80.7 C511.7,74.7 530.9,82.3 543.1,84.1 C555.2,85.8 564.4,89.9 575.6,91.4 C586.8,93.0 602.6,86.9 610.2,93.1 C617.8,99.3 615.9,119.1 621.3,128.6 C626.7,138.0 636.9,141.4 642.5,150.0 C648.2,158.5 653.7,169.3 655.4,180.0 Z"></path>
<path d="M679.4,180.0 C679.3,194.8 688.2,213.1 681.5,224.2 C674.8,235.3 648.3,234.5 639.2,246.5 C630.2,258.5 636.5,285.4 627.2,296.4 C617.9,307.5 598.6,309.4 583.4,312.6 C568.2,315.9 550.1,320.5 536.0,315.9 C522.0,311.4 508.8,296.6 499.2,285.3 C489.6,274.1 488.9,258.4 478.5,248.4 C468.1,238.3 439.0,236.3 436.7,224.9 C434.4,213.5 462.5,194.2 464.6,180.0 C466.8,165.8 446.1,150.2 449.6,139.8 C453.2,129.5 478.4,129.9 486.0,117.9 C493.6,105.9 486.3,76.9 495.2,67.8 C504.1,58.7 524.9,66.0 539.4,63.5 C554.0,60.9 571.0,47.2 582.4,52.7 C593.9,58.2 595.9,88.6 608.4,96.3 C620.8,103.9 644.7,92.0 657.0,98.6 C669.3,105.2 678.3,122.0 682.1,135.6 C685.8,149.1 679.5,165.2 679.4,180.0 Z"></path>
<path d="M699.5,180.0 C697.2,196.4 694.9,212.7 688.4,226.7 C681.9,240.8 669.2,250.3 660.4,264.2 C651.5,278.2 648.3,303.1 635.3,310.5 C622.4,317.9 598.5,311.5 582.6,308.4 C566.8,305.3 556.0,292.6 540.3,291.9 C524.6,291.1 498.9,311.1 488.4,304.0 C477.9,296.9 491.0,260.8 477.2,249.5 C463.4,238.2 416.2,247.8 405.5,236.2 C394.8,224.7 404.0,195.6 412.8,180.0 C421.6,164.4 448.5,155.4 458.1,142.9 C467.7,130.4 467.1,122.2 470.5,104.9 C473.9,87.6 468.1,51.5 478.6,39.0 C489.1,26.6 515.9,30.1 533.6,30.3 C551.3,30.5 569.5,33.8 584.7,40.0 C599.9,46.3 609.2,61.1 624.7,67.9 C640.2,74.8 664.9,71.1 677.9,81.1 C690.8,91.1 698.9,111.6 702.5,128.1 C706.1,144.6 701.8,163.6 699.5,180.0 Z"></path>
<path d="M742.7,180.0 C741.5,200.9 742.8,227.9 728.2,241.2 C713.6,254.5 671.7,250.2 655.0,259.7 C638.3,269.2 640.0,288.8 628.2,298.1 C616.3,307.3 600.2,307.1 583.9,315.5 C567.6,323.9 547.2,348.6 530.3,348.3 C513.5,348.0 498.1,324.9 482.7,313.9 C467.2,303.0 451.7,295.3 437.5,282.8 C423.3,270.3 404.0,256.3 397.6,239.1 C391.2,222.0 399.9,200.0 399.1,180.0 C398.3,160.0 382.0,132.7 392.5,119.0 C403.0,105.3 447.8,111.2 462.2,97.9 C476.6,84.6 467.9,56.3 478.8,39.4 C489.8,22.5 509.4,0.1 527.7,-3.5 C545.9,-7.0 572.4,6.1 588.5,18.1 C604.7,30.1 606.1,60.9 624.3,68.6 C642.5,76.3 679.2,56.5 697.8,64.4 C716.4,72.3 728.2,96.8 735.7,116.0 C743.2,135.3 744.0,159.1 742.7,180.0 Z"></path>
<path d="M481.9,520.0 C479.7,526.4 477.2,530.5 475.9,536.7 C474.6,542.9 477.9,553.0 474.2,557.1 C470.5,561.1 459.5,558.2 453.7,561.1 C448.0,564.1 445.1,573.0 439.7,574.8 C434.2,576.6 426.4,574.2 420.9,571.8 C415.3,569.5 411.9,563.6 406.4,560.9 C400.9,558.2 391.2,559.6 387.8,555.4 C384.4,551.3 387.9,541.9 386.0,536.0 C384.0,530.1 376.3,525.4 376.2,520.0 C376.1,514.6 382.6,508.9 385.4,503.8 C388.3,498.7 390.4,494.3 393.4,489.3 C396.3,484.2 398.8,478.4 403.2,473.5 C407.5,468.7 413.6,460.4 419.5,460.2 C425.3,460.0 432.5,469.6 438.4,472.4 C444.3,475.1 449.2,474.8 455.1,476.6 C461.0,478.4 468.2,479.6 473.9,483.2 C479.5,486.9 487.7,492.4 489.1,498.5 C490.4,504.6 484.1,513.6 481.9,520.0 Z"></path>
<path d="M499.1,520.0 C498.7,529.7 510.0,539.9 509.0,548.8 C508.1,557.6 499.1,565.0 493.5,573.3 C487.8,581.5 483.5,594.9 475.1,598.1 C466.6,601.2 452.3,593.2 442.7,592.1 C433.1,591.0 426.5,591.5 417.4,591.7 C408.2,592.0 396.0,596.6 387.5,593.5 C379.1,590.5 370.9,581.4 366.4,573.4 C361.9,565.3 363.8,554.2 360.4,545.3 C357.1,536.4 346.7,528.6 346.3,520.0 C346.0,511.4 355.3,503.1 358.2,493.9 C361.2,484.7 357.9,470.4 364.1,464.7 C370.3,459.1 386.4,462.5 395.3,459.9 C404.2,457.3 409.1,453.7 417.5,449.1 C425.9,444.5 437.1,431.3 445.5,432.2 C453.8,433.1 461.0,447.9 467.7,454.7 C474.4,461.5 478.6,467.2 485.9,473.1 C493.2,479.1 509.3,482.5 511.5,490.3 C513.7,498.2 499.5,510.3 499.1,520.0 Z"></path>
<path d="M522.0,520.0 C525.3,531.2 534.3,545.9 532.7,557.4 C531.1,568.9 520.9,580.5 512.3,589.1 C503.7,597.6 492.2,604.7 481.2,608.6 C470.1,612.5 458.0,608.5 446.3,612.2 C434.5,615.9 422.6,630.0 410.4,630.9 C398.3,631.9 383.4,625.4 373.4,618.0 C363.5,610.6 357.5,596.9 350.8,586.5 C344.1,576.0 335.6,566.4 333.1,555.3 C330.5,544.2 333.1,530.8 335.7,520.0 C338.3,509.2 345.5,501.0 348.6,490.4 C351.7,479.8 349.6,466.9 354.4,456.5 C359.1,446.2 367.1,432.4 377.1,428.4 C387.1,424.4 402.5,435.8 414.6,432.5 C426.7,429.3 439.1,408.0 449.6,409.0 C460.0,410.0 468.3,430.0 477.1,438.4 C485.9,446.8 496.2,450.9 502.2,459.5 C508.1,468.0 509.3,479.8 512.6,489.9 C515.9,500.0 518.6,508.8 522.0,520.0 Z"></path>
<path d="M541.3,520.0 C535.8,534.8 537.1,544.3 535.2,558.3 C533.4,572.3 538.4,594.1 530.3,604.2 C522.3,614.2 500.4,614.3 487.0,618.7 C473.5,623.0 462.6,626.2 449.5,630.4 C436.3,634.5 421.7,644.2 408.2,643.6 C394.7,643.1 379.3,635.3 368.2,627.1 C357.1,618.8 350.5,605.0 341.6,594.1 C332.7,583.3 323.6,574.3 314.8,561.9 C306.0,549.6 287.4,533.4 289.1,520.0 C290.7,506.6 315.9,493.9 324.7,481.7 C333.6,469.4 333.9,455.7 342.4,446.5 C351.0,437.4 364.9,433.5 376.1,426.6 C387.3,419.8 397.6,407.9 409.8,405.3 C422.0,402.8 433.6,413.2 449.2,411.1 C464.8,409.1 491.3,387.6 503.3,393.0 C515.4,398.3 510.7,430.4 521.5,443.2 C532.3,456.0 564.7,457.0 568.0,469.8 C571.3,482.6 546.7,505.2 541.3,520.0 Z"></path>
<path d="M583.4,520.0 C588.9,536.6 588.0,558.3 583.3,575.8 C578.5,593.2 566.3,609.7 554.8,624.7 C543.3,639.8 531.1,660.4 514.3,666.0 C497.6,671.7 473.5,654.4 454.4,658.5 C435.4,662.7 416.8,691.7 399.9,690.9 C382.9,690.0 368.7,664.6 352.9,653.6 C337.1,642.5 317.9,637.7 305.2,624.7 C292.4,611.8 284.4,593.3 276.5,575.9 C268.7,558.4 254.6,537.3 258.3,520.0 C261.9,502.7 288.2,487.6 298.4,472.1 C308.5,456.6 310.8,442.4 319.3,427.1 C327.7,411.8 335.3,390.1 349.2,380.1 C363.2,370.2 384.9,370.7 403.1,367.2 C421.2,363.8 441.8,354.8 458.3,359.4 C474.8,364.0 484.9,386.7 502.2,394.9 C519.6,403.1 554.6,395.2 562.5,408.8 C570.4,422.4 546.2,457.9 549.7,476.4 C553.2,495.0 577.8,503.4 583.4,520.0 Z"></path>
<path d="M612.8,520.0 C607.9,538.7 579.2,553.4 569.5,570.8 C559.7,588.2 564.4,609.8 554.4,624.4 C544.5,639.0 525.0,644.6 509.7,658.1 C494.5,671.6 481.3,698.1 462.7,705.4 C444.0,712.7 419.8,704.6 397.9,702.1 C376.0,699.6 345.6,704.7 331.5,690.6 C317.5,676.5 324.0,636.3 313.7,617.6 C303.4,598.9 275.1,594.6 269.7,578.4 C264.3,562.1 279.5,538.8 281.3,520.0 C283.1,501.2 278.0,484.3 280.4,465.5 C282.8,446.8 283.1,419.7 295.7,407.3 C308.3,395.0 338.0,398.6 355.8,391.4 C373.6,384.2 384.9,372.9 402.5,364.3 C420.2,355.6 442.5,339.1 461.8,339.4 C481.2,339.7 503.7,353.2 518.8,366.3 C533.8,379.3 538.7,402.2 552.1,417.6 C565.5,432.9 589.0,441.4 599.1,458.4 C609.3,475.5 617.8,501.3 612.8,520.0 Z"></path>
<path d="M601.4,520.0 C604.2,541.1 618.1,567.5 611.8,586.2 C605.5,604.8 575.8,612.0 563.4,632.0 C551.1,652.0 554.0,692.1 537.5,706.2 C521.1,720.4 487.5,719.8 464.7,716.7 C441.8,713.6 420.4,696.0 400.4,687.7 C380.5,679.5 367.4,672.3 345.0,667.2 C322.6,662.2 279.6,672.0 266.0,657.6 C252.5,643.1 272.0,603.5 263.7,580.5 C255.4,557.6 220.9,541.9 216.1,520.0 C211.4,498.1 225.0,470.4 235.2,449.1 C245.4,427.7 263.4,412.1 277.3,391.9 C291.3,371.7 299.7,340.4 319.2,328.0 C338.7,315.7 369.9,319.0 394.3,317.6 C418.7,316.2 443.4,313.5 465.4,319.4 C487.4,325.4 508.8,339.3 526.3,353.2 C543.8,367.0 558.7,384.6 570.2,402.4 C581.7,420.1 590.1,440.2 595.3,459.8 C600.5,479.4 598.7,498.9 601.4,520.0 Z"></path>
<path d="M686.2,520.0 C688.2,545.2 658.0,574.0 643.6,597.7 C629.1,621.4 616.3,642.7 599.4,662.1 C582.5,681.6 563.6,698.5 542.3,714.6 C521.1,730.6 498.2,748.5 472.0,758.4 C445.9,768.3 410.3,782.3 385.2,773.9 C360.1,765.6 339.9,728.7 321.3,708.2 C302.8,687.7 289.3,670.2 273.9,651.0 C258.5,631.8 234.9,615.0 228.9,593.2 C222.8,571.4 240.9,545.5 237.8,520.0 C234.8,494.5 211.8,467.9 210.8,440.2 C209.9,412.6 212.6,369.9 232.2,354.1 C251.9,338.2 303.0,357.0 328.9,345.0 C354.9,333.0 365.4,286.2 388.1,282.2 C410.8,278.1 437.0,317.7 465.1,320.7 C493.3,323.7 533.7,291.4 556.8,300.3 C580.0,309.2 591.4,349.7 603.9,374.0 C616.4,398.4 618.1,422.2 631.8,446.5 C645.5,470.9 684.3,494.8 686.2,520.0 Z"></path>
<path d="M672.7,520.0 C668.0,548.0 651.6,569.0 646.8,598.9 C642.0,628.8 659.7,677.2 644.0,699.6 C628.3,721.9 582.3,727.6 552.9,732.8 C523.4,738.1 495.4,722.8 467.2,731.1 C439.0,739.4 407.7,787.1 383.7,782.7 C359.7,778.3 344.1,724.7 323.3,704.8 C302.5,685.0 274.4,682.3 258.8,663.7 C243.2,645.0 243.9,616.9 229.5,593.0 C215.2,569.0 182.4,547.8 172.9,520.0 C163.4,492.2 162.3,453.7 172.5,426.3 C182.7,398.9 209.9,372.4 234.1,355.6 C258.2,338.7 292.7,342.7 317.5,325.1 C342.2,307.5 355.6,262.8 382.4,249.9 C409.1,237.0 450.6,236.5 478.0,247.8 C505.4,259.2 525.5,297.0 546.7,317.9 C568.0,338.7 584.1,353.9 605.5,372.7 C626.9,391.6 663.8,406.3 675.0,430.8 C686.2,455.4 677.4,492.0 672.7,520.0 Z"></path>
<path d="M748.5,600.0 C747.9,603.1 744.2,604.9 744.0,608.7 C743.8,612.6 748.8,619.9 747.4,623.0 C746.1,626.1 739.6,626.4 735.9,627.5 C732.2,628.7 728.9,629.1 725.3,629.9 C721.7,630.7 718.1,632.3 714.3,632.3 C710.5,632.4 705.7,632.3 702.5,630.4 C699.2,628.5 695.9,624.7 695.0,621.0 C694.0,617.4 698.7,612.0 696.7,608.5 C694.7,605.0 682.9,602.8 682.9,600.0 C682.9,597.2 693.9,594.3 696.9,591.6 C699.9,588.9 699.2,586.3 701.0,584.0 C702.7,581.8 705.0,580.1 707.4,578.1 C709.7,576.0 712.0,573.4 715.0,571.7 C718.1,570.1 722.7,566.9 725.6,568.0 C728.5,569.2 730.1,575.9 732.4,578.5 C734.7,581.1 736.7,581.9 739.3,583.8 C741.8,585.7 746.2,587.2 747.7,589.9 C749.3,592.6 749.1,596.9 748.5,600.0 Z"></path>
<path d="M774.0,600.0 C773.2,605.8 766.8,610.2 765.4,616.5 C764.0,622.9 769.0,633.9 765.5,638.2 C762.1,642.5 750.4,639.2 744.5,642.4 C738.5,645.5 735.3,657.7 730.1,657.2 C724.9,656.6 718.8,641.5 713.2,638.8 C707.5,636.2 700.0,643.7 696.1,641.4 C692.1,639.2 691.4,630.3 689.6,625.5 C687.8,620.7 686.8,616.8 685.4,612.6 C684.1,608.3 682.5,604.5 681.6,600.0 C680.6,595.5 678.6,589.7 679.7,585.3 C680.9,581.0 686.1,578.4 688.6,573.7 C691.2,569.0 691.4,560.7 695.2,557.1 C699.0,553.5 706.2,551.6 711.5,552.1 C716.9,552.5 721.4,559.1 727.1,559.7 C732.8,560.2 741.2,553.5 745.7,555.5 C750.2,557.4 750.2,566.9 754.3,571.2 C758.4,575.6 767.1,576.9 770.4,581.7 C773.7,586.5 774.8,594.2 774.0,600.0 Z"></path>
<path d="M774.9,600.0 C773.9,608.3 787.5,617.9 785.5,623.8 C783.4,629.8 767.4,629.2 762.5,635.7 C757.7,642.2 761.4,657.5 756.4,663.0 C751.3,668.4 739.9,668.6 732.1,668.4 C724.2,668.1 717.0,662.7 709.2,661.4 C701.4,660.1 692.0,663.3 685.1,660.4 C678.2,657.4 670.1,650.9 667.8,643.8 C665.6,636.6 674.0,624.9 671.6,617.6 C669.1,610.3 655.9,606.9 653.0,600.0 C650.2,593.1 651.8,583.3 654.4,576.1 C657.1,569.0 664.5,564.5 669.0,557.2 C673.4,549.9 674.6,537.4 681.0,532.4 C687.4,527.5 698.9,526.6 707.2,527.7 C715.5,528.7 723.9,535.1 730.8,538.8 C737.7,542.6 743.5,546.0 748.7,550.3 C753.8,554.7 754.4,561.2 761.5,565.2 C768.6,569.1 789.0,568.3 791.3,574.1 C793.5,579.9 775.8,591.7 774.9,600.0 Z"></path>
<path d="M795.1,600.0 C797.6,608.5 798.9,619.0 797.4,628.2 C795.8,637.4 793.0,650.1 785.8,655.2 C778.6,660.3 762.5,654.2 754.0,658.8 C745.4,663.4 743.2,675.8 734.6,682.8 C726.0,689.8 711.9,702.2 702.2,700.8 C692.6,699.5 684.6,682.7 676.7,674.9 C668.9,667.2 662.8,661.5 655.1,654.5 C647.3,647.4 632.9,641.8 630.1,632.7 C627.2,623.6 634.7,609.7 638.0,600.0 C641.2,590.3 648.4,584.8 649.6,574.4 C650.8,563.9 639.3,543.1 645.2,537.2 C651.0,531.3 675.1,544.8 684.7,538.9 C694.3,533.0 693.9,508.0 702.7,501.8 C711.4,495.7 727.2,498.1 737.3,502.0 C747.3,506.0 755.0,518.3 763.0,525.6 C770.9,532.8 781.6,537.0 784.9,545.6 C788.1,554.2 780.8,568.2 782.5,577.3 C784.2,586.3 792.6,591.5 795.1,600.0 Z"></path>
<path d="M837.7,600.0 C841.9,610.7 825.7,624.5 820.4,636.6 C815.2,648.6 816.7,667.4 806.5,672.6 C796.2,677.7 770.2,661.7 759.0,667.5 C747.7,673.3 748.7,700.1 739.0,707.5 C729.2,714.9 711.8,715.2 700.3,711.9 C688.7,708.6 679.1,695.3 669.5,687.5 C659.8,679.7 648.1,674.5 642.5,665.1 C636.9,655.6 639.2,641.5 635.8,630.6 C632.5,619.8 625.1,611.2 622.5,600.0 C619.9,588.8 619.4,576.6 620.3,563.7 C621.2,550.9 620.3,532.1 628.2,522.9 C636.0,513.7 654.8,512.1 667.2,508.6 C679.6,505.1 691.2,501.9 702.7,501.9 C714.2,501.8 723.7,508.7 736.1,508.5 C748.6,508.3 768.1,495.4 777.3,500.7 C786.6,505.9 788.4,528.1 791.5,540.0 C794.5,552.0 787.8,562.5 795.5,572.5 C803.2,582.5 833.6,589.3 837.7,600.0 Z"></path>
<path d="M814.2,600.0 C814.4,610.9 811.5,620.6 810.4,632.9 C809.4,645.2 814.8,665.1 807.8,673.7 C800.9,682.3 779.2,673.1 768.7,684.4 C758.2,695.6 755.7,739.7 744.9,740.9 C734.0,742.2 718.1,697.8 703.8,692.0 C689.5,686.1 670.3,709.2 659.0,705.7 C647.6,702.2 647.3,680.5 635.5,670.9 C623.7,661.3 590.8,659.8 588.2,648.0 C585.5,636.2 615.0,614.3 619.6,600.0 C624.2,585.7 613.4,574.0 616.0,562.2 C618.7,550.3 626.9,537.9 635.4,529.0 C644.0,520.1 655.9,511.9 667.3,508.8 C678.8,505.6 692.0,514.0 704.1,510.1 C716.3,506.2 729.5,484.3 740.2,485.4 C750.9,486.5 755.5,511.0 768.1,516.6 C780.8,522.3 809.3,510.8 816.2,519.3 C823.1,527.7 809.8,554.0 809.5,567.4 C809.1,580.9 814.1,589.1 814.2,600.0 Z"></path>
<path d="M155.6,640.0 C156.3,643.1 159.1,647.6 157.9,650.2 C156.7,652.8 150.8,653.1 148.6,655.6 C146.3,658.1 146.8,663.9 144.4,664.9 C141.9,665.9 136.8,662.2 133.8,661.6 C130.8,661.0 128.9,661.3 126.3,661.1 C123.7,660.9 120.2,661.7 118.3,660.3 C116.3,659.0 116.4,655.0 114.5,653.0 C112.7,651.0 108.4,650.5 107.0,648.4 C105.6,646.2 106.2,642.9 106.0,640.0 C105.8,637.1 105.5,634.3 105.8,631.2 C106.1,628.1 105.5,623.0 107.8,621.4 C110.1,619.8 116.3,622.1 119.4,621.6 C122.4,621.0 123.6,619.1 126.1,618.1 C128.6,617.1 131.5,615.5 134.3,615.4 C137.2,615.2 141.1,615.5 143.1,617.2 C145.2,619.0 145.1,623.5 146.8,625.9 C148.6,628.2 152.2,629.0 153.7,631.4 C155.2,633.7 154.9,636.9 155.6,640.0 Z"></path>
<path d="M171.1,640.0 C170.8,645.1 173.1,650.7 171.5,655.1 C169.9,659.5 165.0,663.2 161.4,666.3 C157.7,669.4 153.6,671.5 149.5,673.8 C145.5,676.1 141.3,679.9 137.1,680.0 C132.8,680.2 128.6,675.2 123.9,674.6 C119.2,674.0 113.9,677.3 108.9,676.6 C103.9,675.8 96.8,673.9 94.1,670.1 C91.5,666.3 94.2,658.6 92.8,653.5 C91.4,648.5 86.5,644.7 85.9,640.0 C85.4,635.3 87.6,629.8 89.6,625.3 C91.6,620.8 94.4,616.0 98.1,613.2 C101.8,610.4 107.6,610.8 111.8,608.4 C115.9,606.0 118.5,600.6 122.8,599.0 C127.0,597.3 133.2,596.8 137.3,598.7 C141.3,600.6 142.1,608.8 147.0,610.6 C151.9,612.3 162.4,606.9 166.8,609.1 C171.1,611.4 172.5,619.1 173.2,624.3 C173.9,629.4 171.4,634.9 171.1,640.0 Z"></path>
<path d="M197.6,640.0 C197.3,647.7 196.8,656.7 192.9,662.9 C189.0,669.1 179.3,671.6 174.2,677.1 C169.1,682.6 167.7,691.4 162.2,695.8 C156.7,700.3 148.1,704.6 141.2,703.6 C134.4,702.7 128.6,691.0 121.2,689.9 C113.8,688.8 103.8,698.5 97.1,697.1 C90.3,695.6 83.0,688.1 80.6,681.4 C78.3,674.8 83.4,664.0 83.1,657.1 C82.7,650.2 79.0,645.8 78.6,640.0 C78.2,634.2 78.3,627.2 80.6,622.0 C83.0,616.8 88.6,612.7 92.8,608.8 C97.1,605.0 101.5,602.0 106.2,598.8 C111.0,595.7 115.7,591.6 121.2,589.9 C126.6,588.1 133.1,587.9 139.1,588.4 C145.0,589.0 152.3,589.9 156.9,593.4 C161.5,596.9 160.3,605.5 166.6,609.3 C172.8,613.2 189.3,611.4 194.5,616.5 C199.7,621.6 197.8,632.3 197.6,640.0 Z"></path>
<path d="M218.9,640.0 C217.2,649.5 206.6,657.1 203.0,666.6 C199.4,676.0 203.5,690.4 197.5,696.6 C191.4,702.8 176.0,701.4 166.8,703.7 C157.6,706.1 150.7,709.6 142.5,710.6 C134.3,711.7 126.7,709.8 117.6,710.3 C108.5,710.7 94.2,717.7 87.7,713.2 C81.2,708.7 85.0,690.5 78.5,683.2 C72.1,675.9 54.6,676.6 49.1,669.4 C43.6,662.2 43.7,649.1 45.7,640.0 C47.6,630.9 57.4,623.7 60.8,614.8 C64.3,605.9 61.3,593.5 66.4,586.6 C71.5,579.7 82.9,575.5 91.5,573.4 C100.2,571.2 109.8,574.9 118.3,573.8 C126.9,572.7 135.6,565.2 142.9,567.0 C150.1,568.9 155.6,579.8 161.8,585.0 C168.0,590.1 171.6,593.8 180.2,597.9 C188.8,602.0 207.0,602.6 213.5,609.6 C220.0,616.6 220.7,630.5 218.9,640.0 Z"></path>
<path d="M226.1,640.0 C225.7,651.0 225.6,664.1 219.8,672.7 C214.0,681.2 199.9,685.8 191.3,691.4 C182.7,697.0 175.5,697.5 168.3,706.4 C161.2,715.2 157.2,741.6 148.4,744.3 C139.6,747.1 124.9,729.1 115.4,722.8 C105.9,716.5 102.0,709.7 91.5,706.7 C81.1,703.7 60.5,710.8 52.7,704.8 C44.9,698.9 50.0,681.9 44.7,671.0 C39.4,660.2 19.4,649.9 20.7,640.0 C22.0,630.1 44.1,620.1 52.4,611.8 C60.7,603.4 66.5,600.9 70.5,590.1 C74.4,579.2 68.7,552.8 76.0,546.6 C83.4,540.3 102.5,553.9 114.6,552.4 C126.6,550.9 136.9,537.7 148.1,537.3 C159.3,537.0 172.3,543.6 181.9,550.1 C191.5,556.6 199.2,567.0 205.8,576.4 C212.5,585.8 218.5,596.0 221.8,606.6 C225.2,617.2 226.4,629.0 226.1,640.0 Z"></path>
</svg>